PathFileType	4	(X/Y/Z)	G:\TennisProject\Miami_Dimitrov_Sinner_masked_Sports2D\Miami_Dimitrov_Sinner_masked_Sports2D_px_person01.trc
DataRate	CameraRate	NumFrames	NumMarkers	Units	OrigDataRate	OrigDataStartFrame	OrigNumFrames
25	25	9	22	m	25	436	499
Frame#	Time	Hip			RHip			RKnee			RAnkle			RBigToe			RSmallToe			RHeel			LHip			LKnee			LAnkle			LBigToe			LSmallToe			LHeel			Neck			Head			Nose			RShoulder			RElbow			RWrist			LShoulder			LElbow			LWrist		
		X1	Y1	Z1	X2	Y2	Z2	X3	Y3	Z3	X4	Y4	Z4	X5	Y5	Z5	X6	Y6	Z6	X7	Y7	Z7	X8	Y8	Z8	X9	Y9	Z9	X10	Y10	Z10	X11	Y11	Z11	X12	Y12	Z12	X13	Y13	Z13	X14	Y14	Z14	X15	Y15	Z15	X16	Y16	Z16	X17	Y17	Z17	X18	Y18	Z18	X19	Y19	Z19	X20	Y20	Z20	X21	Y21	Z21	X22	Y22	Z22
436	17.44	686.3750302441781	798.0905127134824	0.0	694.4379816266934	796.2603167641362	0.0	677.6174012155329	857.0003787227929	0.0	685.8384241216468	914.2132193630016	0.0	660.9830605458142	934.4510193126662	0.0	665.1743313501353	930.6751150330276	0.0	691.1240765295663	925.2938107687814	0.0	682.9590827063744	798.1458657147343	0.0	673.6826183809828	864.4329312425973	0.0	702.8333248346636	923.068283144507	0.0	686.1735311400163	946.5622427423391	0.0	691.7072386213126	945.8616229664036	0.0	713.7552199842908	929.4554200629448	0.0	673.2725856703513	709.322884619373	0.0	650.653051905614	675.8211938700634	0.0	656.9862641887593	698.6090939802993	0.0	695.7691898836326	708.4376003524641	0.0	732.8256124754168	704.0504499881365	0.0	770.9371623484661	693.5423219283429	0.0	659.7300394931237	718.6092440118696	0.0	678.7653700439172	732.0014884355005	0.0	706.176145397089	739.6391981943791	0.0
437	17.48	679.617813685728	796.122540140638	0.0	690.179244287094	795.2681907021176	0.0	675.0930945413616	855.1458893667202	0.0	684.6900805166351	913.2716841335075	0.0	661.2864890699982	932.5431896886794	0.0	666.0740103237592	929.962439689547	0.0	689.714878880302	924.549119376608	0.0	672.9811178342114	797.6560016819358	0.0	661.844709954022	862.6814394840305	0.0	686.3448448732124	923.5407825594643	0.0	666.7411258471656	945.0838818512948	0.0	671.2829171964961	945.8661875015559	0.0	696.3272469550426	931.6459514717047	0.0	665.7786662742324	705.7800768391021	0.0	646.2002420661204	673.8246567912089	0.0	650.5269363183602	696.2076325143814	0.0	689.2504923970631	704.4769751029594	0.0	726.1361557955984	696.7290787664076	0.0	762.7303230489314	681.8408236590135	0.0	651.6084237756052	717.6401255645147	0.0	672.3259885699238	733.4021279264149	0.0	698.0896871438015	738.9554294945062	0.0
438	17.52	673.7128055530624	794.236114249187	0.0	685.3679923077605	794.0282901275953	0.0	671.7727565943678	851.8222705210242	0.0	683.6624092514044	911.3814952083825	0.0	664.6599304183226	927.9279503125996	0.0	670.1223707297636	926.4353874657629	0.0	688.7231778931753	922.2293498550034	0.0	664.2714275247945	796.4903959965203	0.0	649.3984702607106	859.2734369378836	0.0	667.604785201125	923.160627283293	0.0	645.7504977789308	944.1897848988531	0.0	649.0920904664863	945.9290954789944	0.0	677.0021875847771	932.3237166469237	0.0	657.3078347077743	703.3808024863765	0.0	641.5254197369865	672.3765487060602	0.0	643.5251102691377	694.591277908985	0.0	681.970174810285	702.7847226452259	0.0	717.5472823389722	693.04274013864	0.0	753.9597001285822	676.3860054182583	0.0	643.2853375656194	718.2135675220761	0.0	664.3687717481477	738.9287374958711	0.0	684.4343529272248	744.841860000658	0.0
439	17.56	668.0932964256855	792.9945305152517	0.0	679.4440303520721	792.2807890154394	0.0	667.6716928205417	848.7068219382226	0.0	682.4393419560208	909.7101105820058	0.0	667.0574138371371	925.866422835065	0.0	673.4936661696094	924.6076313020696	0.0	688.1156540090032	919.8287807619182	0.0	656.8592054854262	794.7867511916131	0.0	637.6206377205856	855.7054963775092	0.0	647.6487906904354	922.4819797486834	0.0	624.2943099611072	941.9581644236068	0.0	627.0866300624602	943.8339010008723	0.0	656.1836599729305	931.9362310611459	0.0	649.2266291486969	703.1704339865935	0.0	634.8833554717428	671.3892631738768	0.0	635.7268330020858	694.1050402190558	0.0	674.5218259069576	702.7333424890908	0.0	710.047350151792	692.492478409143	0.0	746.4124283752341	676.5245231553764	0.0	635.1898218636304	720.029699774014	0.0	652.8982436374163	745.9379982884509	0.0	665.315321438241	760.5404469928063	0.0
440	17.6	662.072219170415	793.4479546566215	0.0	673.2445738359119	791.8095012152176	0.0	663.9019127677518	847.6510312327741	0.0	680.990605289378	909.1636500550507	0.0	666.1004309145674	928.0265026971982	0.0	673.2722944436197	926.2411105233984	0.0	687.719097829929	918.6250422100763	0.0	650.0617406339613	794.7722653648447	0.0	626.710674429575	854.109713112329	0.0	627.6203226811257	921.3344016592281	0.0	603.3089675571648	938.1770313398974	0.0	605.7562755117947	939.8772411025009	0.0	634.45847584552	931.175224622438	0.0	641.7389126168723	705.1396904505395	0.0	627.7096907522039	671.7657227077642	0.0	628.2240971091326	694.988438899868	0.0	666.897753862538	704.2619514999648	0.0	704.3961029159871	694.8376700127988	0.0	740.1535386307438	680.9623924607815	0.0	627.3774115344975	723.2933147867249	0.0	638.7537705452406	753.3615143112428	0.0	643.871704165233	782.6425678127144	0.0
441	17.64	655.4954111274739	795.4892216673526	0.0	667.1579493937044	793.7546668978678	0.0	660.7631637809156	848.6280285819481	0.0	679.0651146136913	909.415608599148	0.0	663.590889503741	930.1631054885556	0.0	670.6802681522097	927.9091628687856	0.0	685.9977952752652	918.9903109847494	0.0	643.535092054417	796.8967877838872	0.0	616.51913754997	855.1151205528639	0.0	608.3887237945291	920.025172161867	0.0	584.7941933278165	934.3168129565972	0.0	586.1801515596391	936.1909710226668	0.0	613.1761725950913	930.6444940239641	0.0	634.4163979944465	708.6411912514549	0.0	621.0626098071855	674.21715105648	0.0	621.7323308075256	697.6200801274575	0.0	659.4543239529128	707.412531208846	0.0	698.5521376836354	700.0591961312668	0.0	735.2467738432342	687.8773495831251	0.0	619.1583642684147	728.25751108498	0.0	624.3295783986027	761.9277980719933	0.0	622.2382781396584	801.1346145377328	0.0
442	17.68	648.3638384651526	798.9448651375733	0.0	660.9263968681928	797.8249226995241	0.0	657.5933888367756	851.3057147084241	0.0	676.3516859312716	910.7163457835024	0.0	662.0818260515523	930.5123996338425	0.0	668.6739824589248	928.4878815236474	0.0	682.2512876709523	920.9393457188589	0.0	636.2165203225563	800.5603389190098	0.0	606.6607341799878	858.3085277425675	0.0	591.124910028776	920.3755882913981	0.0	571.3782745003504	931.7976510729451	0.0	570.5350959777186	934.084001055117	0.0	594.3391436357746	931.2151403641926	0.0	627.3720168704342	713.4305729989718	0.0	615.0240700313329	678.5631219703074	0.0	615.8139471210102	702.166643125724	0.0	653.044095237846	712.6631040625288	0.0	692.1240119768959	708.1110768168869	0.0	731.4924640867426	696.0709102646788	0.0	610.5712189272353	734.0874866626755	0.0	610.6705445327092	771.4404018167342	0.0	601.1076989149786	811.7125668037185	0.0
443	17.72	640.6635611325819	804.4313143342247	0.0	654.20226304394	804.0306467438497	0.0	653.5293846959444	855.8070638224092	0.0	673.1684515045672	913.4608226060241	0.0	662.1748136399702	930.9097916347279	0.0	668.7498122101871	929.6223920437391	0.0	678.0555033019514	923.8862931963042	0.0	627.4913742837057	806.3018941799851	0.0	596.7735426569623	862.571825116298	0.0	578.1943169784707	923.6771933652749	0.0	564.084962453782	931.3101983859193	0.0	560.5179368681588	934.1991802230259	0.0	580.735952422246	933.9810274886338	0.0	621.074611790257	719.6813470184533	0.0	609.9298052926549	684.2955766792647	0.0	609.6276937064431	708.2246406490289	0.0	647.8473883929062	720.5793361472049	0.0	686.826635609417	718.0442564985018	0.0	727.920103051503	705.3533344053105	0.0	602.3761345933515	740.0010741372927	0.0	598.0421208073369	780.7999026124268	0.0	582.4398242931419	817.7399237639868	0.0
444	17.76	633.0903372574547	811.1922238176437	0.0	647.3703639412228	811.5241698237418	0.0	648.5162507835225	861.0088183145634	0.0	670.1138567742653	916.148003908994	0.0	662.6426941224676	931.8938214738937	0.0	669.8181133317431	930.9129636229823	0.0	674.9186193702965	925.8799570197953	0.0	618.6699821846624	813.4477314405872	0.0	587.5187939577474	865.9970986126124	0.0	571.4930947258431	927.7821129510143	0.0	561.1670947600481	931.7871962882582	0.0	556.1884411352632	935.5774839781109	0.0	574.140293761319	937.4957416112654	0.0	615.7716521348278	726.5165536069762	0.0	605.7603914293494	690.7428018636618	0.0	603.6782614973472	714.6180042875759	0.0	643.422890034575	729.7552912113324	0.0	683.4715968713363	728.0552865256708	0.0	724.0449811053268	715.2756243387284	0.0	595.1515089781694	745.8345940071883	0.0	587.1238398125575	788.4662195176802	0.0	568.3871916527243	820.8241712228455	0.0
